<svg version="1.0" xmlns="http://www.w3.org/2000/svg" width="33.333" height="33.333" viewBox="0 0 110 110">
  <path d="M26.8 23.7C13.6 36.8 2.2 48.8 1.3 50.4c-3 5.7.7 12.9 7.4 14.2l3.2.6.3 18.9.3 18.9 3.3 3.2c3.2 3.3 3.2 3.3 14.9 3.6 10.3.3 11.8.2 13-1.4.9-1.3 1.3-5.9 1.3-15.9 0-17.2.2-17.5 10.3-17.5 10.4 0 10.7.6 10.7 18.9 0 12.7.2 15 1.6 15.5 3.1 1.2 20.4.6 23.9-.8 5.8-2.5 6.5-5.2 6.5-25.6 0-17.5.1-18 2.1-18 5.4 0 9.8-4.7 9.9-10.5 0-3.9-.7-4.6-25.3-29.2L59.5 0h-8.8zm53.5 6.1c13 13.1 23.7 24.1 23.7 24.4 0 2.5-1.6 3.8-4.7 3.8-7.4 0-7.3-.3-7.3 22 0 16.7-.2 20.1-1.6 21.4-1.2 1.2-3.6 1.6-10 1.6H72V90.5C72 71.7 69.8 69 55 69c-14.5 0-17 3.2-17 21.9v12.2l-8.7-.3c-11.6-.4-11.3.3-11.3-24.5 0-21.6.7-19.8-7.5-20.5-2.4-.2-3.1-.8-3.3-2.8-.2-2.1 3.6-6.4 23.1-25.8C43.1 16.5 54.3 6 55.1 6s12.1 10.7 25.2 23.8" fill="currentColor"/>
</svg>
