<svg fill="currentColor" version="1.0" xmlns="http://www.w3.org/2000/svg" width="40" height="40" viewBox="0 0 106 106">
  <path d="M14.4 15.9c-4.1 1-5.4 1.9-5.4 3.6 0 .9-1.4 1.5-4.2 1.7l-4.3.3V56c0 39.5-1.1 36 9.9 32 9.4-3.4 21-4.5 31.8-3 11.3 1.5 10.3 1.5 21.6 0 10.8-1.5 22.4-.4 31.8 3 11 4 9.9 7.5 9.9-32V21.5l-4.2-.3c-2.9-.2-4.3-.8-4.3-1.7 0-2.9-4.3-4-16-4-10.5 0-12 .2-17.5 2.8-3.3 1.6-7 3.7-8.2 4.9l-2.2 2-3.3-2.6c-6.6-5-12.6-6.9-22.8-7.2-5.2-.2-10.9 0-12.6.5m24.7 5.6c2.5.9 6.2 2.9 8.2 4.6l3.7 3v25.6c0 23.9-.1 25.5-1.7 24.8-11.5-4.8-11.7-4.9-24-4.9L13 74.5V20.1l3.8-.4c6.1-.8 17.4.1 22.3 1.8m48.7-1.9 5.2.7v53.5l-12.2.4c-11.9.5-13.4.8-24 5.3-1.7.7-1.8-.9-1.8-24.8V29.2l3.3-2.8c7-5.9 17.2-8.2 29.5-6.8M9.2 51.7l.3 26.8 10-.3c5.5-.2 12 .1 14.5.6 4.2.8 4 .8-5 1.5-5.2.3-12.8 1.6-16.7 2.7-4 1.1-7.5 2-7.8 2-.8 0-.6-58.6.2-59.3.3-.4 1.5-.7 2.5-.7 1.7 0 1.8 1.7 2 26.7M102 55c0 16.5-.2 30-.5 30s-3.8-.9-7.8-2c-3.9-1.1-11.5-2.4-16.7-2.7-8.4-.6-9-.8-5.5-1.5 2.2-.4 8.7-.7 14.5-.5l10.5.2.3-26.8L97 25h5z"/>
</svg>
