<svg version="1.0" xmlns="http://www.w3.org/2000/svg" height="45" width="45" viewBox="0 0 512 512">
  <g fill="currentColor">
    <path d="M243.3 16c-16.4 3-30.5 12.7-38.5 26.7l-2.9 5.2-44.2.3-44.2.3-6.8 2.7c-17.1 6.9-29.6 21.4-33.3 38.7-2.1 10.1-2 353.4.1 363.6 4.1 19.2 19.1 35 38 40 5.2 1.3 22.9 1.5 140.5 1.5 148.4 0 139.9.3 152.4-6.3 7.5-4 16.2-12.4 20.4-19.8 1.8-3.2 4.1-9.2 5.2-13.5 2-7.6 2-11.4 2-183.3 0-146.9-.3-176.7-1.4-182.2-3.7-17.3-16.2-31.8-33.3-38.7l-6.8-2.7-44.2-.3-44.2-.3-3.2-5.7c-10.4-18.4-34.7-29.9-55.6-26.2m19 25.3c5.4 1.8 12.5 7.3 15 11.4 1.2 2.1 3.1 6.2 4.2 9.2 3.2 8.9 5.8 10.1 22.3 10.1h13.4l-.4 9.2c-.6 13.9-5.4 21.8-16.3 26.9l-6 2.9h-85.2l-6.1-3.1c-10.9-5.4-15.4-12.8-16-26.7l-.4-9.2h13.4c16.6 0 19.1-1.1 22.3-10.2 6.3-17.8 23.1-26.4 39.8-20.5M163 80c0 10.4 1.4 16.9 5.7 25.9 4.2 8.9 13.1 18.2 21.9 22.8 11.2 5.9 14.4 6.3 61 6.3 23.9 0 44.5-.4 47.5-1 8.7-1.6 19.4-7.5 26.3-14.4C336 109 341 96.5 341 80.2V72h21.5c19.1 0 22 .2 26.9 2 6.5 2.5 13 8.6 16 15l2.1 4.5v356.1l-3 5.9c-3.4 6.6-10.1 12.5-16.5 14.4-2.7.8-40.8 1.1-136.8 1.1h-133l-6.3-3.3c-4-2-7.5-4.8-9.6-7.5-6.7-8.9-6.3 3.7-6.1-190.7l.3-176 2.3-4.6c3.1-6.4 9.6-12.5 15.7-14.9 4.4-1.7 7.7-1.9 26.8-1.9L163 72z"/>
    <path d="M314.5 235c-1.1.5-20 18.5-42 39.9l-40 39.1-13.5-13.3c-28.6-28.1-29.3-28.7-33.9-28.7-5.6 0-9.5 2.2-11.5 6.4-2 4.3-2 6.4.2 10.3.9 1.7 13.2 14.4 27.3 28.2 27.6 26.8 29 27.8 35.6 24.9 4.9-2.1 93-88.5 94.4-92.5 1.5-4.7.3-8.7-3.7-12.3-3.6-3.1-8.6-3.9-12.9-2"/>
  </g>
</svg>
